:version 1.10
:name ASF
:units
  mass 1
  length 1
  angle deg
:documentation
  ASF file generated by Kaydara
:root
  axis xyz
  order  tx ty tz rx ry rz
  position 0 0 0
  orientation 0 0 0
:bonedata
  begin
    id 1
    name RightUpLegDummy
    direction -1 2.30186e-007 8.31532e-007
    length 4.04083
    axis 0 0 0 xyz
  end
  begin
    id 2
    name RightUpLeg
    direction -0.000919234 -0.999985 0.00544864
    length 17.4221
    axis -3.80308 -0.00076134 -0.0523649 xyz
    dof rx ry rz
  end
  begin
    id 3
    name RightLeg
    direction -0.000919271 -0.999984 -0.00555045
    length 17.1239
    axis 4.00314 0.0181274 -0.183583 xyz
    dof rx ry rz
  end
  begin
    id 4
    name RightFoot
    direction -2.57843e-005 -4.04509e-007 1
    length 6.72091
    axis 8.18909e-005 -0.122003 -0.403008 xyz
    dof rx ry rz
  end
  begin
    id 5
    name RightToes
    direction 0.00116825 -0.014069 0.9999
    length 3.85082
    axis 0.000514414 0.540638 -0.356797 xyz
    dof rx ry rz
  end
  begin
    id 6
    name SpineDummy
    direction 0.0168869 0.966876 -0.254689
    length 6.99894
    axis 0 0 0 xyz
  end
  begin
    id 7
    name Spine
    direction -0.0132008 0.999903 0.00446247
    length 11.1999
    axis -0.00148109 0.00725429 0.756411 xyz
    dof rx ry rz
  end
  begin
    id 8
    name Spine1
    direction 0 0 0
    length 0
    axis -0.000934958 0.0245693 1.46543 xyz
    dof rx ry rz
  end
  begin
    id 9
    name HEadDummy
    direction -0.0255732 0.999672 0.00128215
    length 3.43865
    axis -0.000934958 0.0245693 1.46543 xyz
  end
  begin
    id 10
    name HEad
    direction -0.0472656 0.980052 0.19304
    length 5.12695
    axis -0.000934954 0.0245693 1.46543 xyz
    dof rx ry rz
  end
  begin
    id 11
    name LeftShoulder1Dummy
    direction 0.953098 0.301717 -0.023914
    length 3.68488
    axis -0.000934958 0.0245693 1.46543 xyz
  end
  begin
    id 12
    name LeftShoulder1
    direction 0.962466 0.271167 0.0112566
    length 3.13809
    axis -0.000934958 0.0245693 1.46543 xyz
    dof rx ry rz
  end
  begin
    id 13
    name LeftArm
    direction 0.999943 0.00455037 -0.00961766
    length 11.3419
    axis -23.1648 0.685459 1.22814 xyz
    dof rx ry rz
  end
  begin
    id 14
    name LeftForeArm
    direction 0.999332 0.0131969 0.0340885
    length 8.70632
    axis -9.90633 0.618216 0.0826942 xyz
    dof rx ry rz
  end
  begin
    id 15
    name LeftHand
    direction 0.994373 -0.0366703 0.0993905
    length 5.32135
    axis 0.00675269 0.680415 0.445699 xyz
    dof rx ry rz
  end
  begin
    id 16
    name RightShoulderDummy
    direction -0.967298 0.252589 -0.0230903
    length 3.68488
    axis -0.000934958 0.0245693 1.46543 xyz
  end
  begin
    id 17
    name RightShoulder
    direction -0.975062 0.221602 0.0120823
    length 3.13809
    axis 0.216257 0.0246515 1.45863 xyz
    dof rx ry rz
  end
  begin
    id 18
    name RightArm
    direction -0.99886 -0.00851186 -0.0469687
    length 10.3947
    axis -23.196 0.23503 -0.532632 xyz
    dof rx ry rz
  end
  begin
    id 19
    name RightForeArm
    direction -0.99909 0.00114866 0.0426317
    length 8.68355
    axis -9.91764 -0.134943 0.610517 xyz
    dof rx ry rz
  end
  begin
    id 20
    name RightHand
    direction -0.992888 -0.0489538 0.10852
    length 5.28593
    axis -0.00275396 -0.197403 0.246414 xyz
    dof rx ry rz
  end
  begin
    id 21
    name LeftUpLegDummy
    direction 1 -2.30186e-007 -8.31532e-007
    length 4.04083
    axis 0 0 0 xyz
  end
  begin
    id 22
    name LeftUpLeg
    direction -0.000920097 -1 2.79241e-006
    length 17.4221
    axis -3.48782 0.00143434 -0.0532288 xyz
    dof rx ry rz
  end
  begin
    id 23
    name LeftLeg
    direction -0.000920097 -1 2.7912e-006
    length 17.1239
    axis 3.68162 -0.00806512 -0.0529896 xyz
    dof rx ry rz
  end
  begin
    id 24
    name LeftFoot
    direction -2.57845e-005 -3.987e-007 1
    length 6.72091
    axis 3.02372e-005 -0.00147829 -0.214229 xyz
    dof rx ry rz
  end
  begin
    id 25
    name LeftToes
    direction 0.00813577 -0.00488255 0.999955
    length 3.85048
    axis 3.89895e-005 -0.0014783 -0.214229 xyz
    dof rx ry rz
  end
:hierarchy
  begin
    root RightUpLegDummy SpineDummy LeftUpLegDummy
    RightUpLegDummy RightUpLeg
    RightUpLeg RightLeg
    RightLeg RightFoot
    RightFoot RightToes
    SpineDummy Spine
    Spine Spine1
    Spine1 HEadDummy LeftShoulder1Dummy RightShoulderDummy
    HEadDummy HEad
    LeftShoulder1Dummy LeftShoulder1
    LeftShoulder1 LeftArm
    LeftArm LeftForeArm
    LeftForeArm LeftHand
    RightShoulderDummy RightShoulder
    RightShoulder RightArm
    RightArm RightForeArm
    RightForeArm RightHand
    LeftUpLegDummy LeftUpLeg
    LeftUpLeg LeftLeg
    LeftLeg LeftFoot
    LeftFoot LeftToes
  end

:SAMPLES-PER-SECOND 30
:FULLY-SPECIFIED
:DEGREES
94
root  -6.40704 34.8157 -33.0792 -173.513 -14.3866 177.533
RightUpLeg  -1.08657 -25.5296 -8.89501
RightLeg  5.91351 -10.1366 -0.389248
RightFoot  6.58727 0.0941895 -1.04724
RightToes  -28.643 -0.134689 -0.239833
Spine  -3.20849 2.78327 -0.484701
Spine1  -6.28146 5.19946 -0.303552
HEad  -57.4729 -7.942 3.5393
LeftShoulder1  -1.94126e-019 -3.10601e-018 -2.51263e-017
LeftArm  2.24774 21.4455 -79.0747
LeftForeArm  31.2945 -27.4939 -4.63691
LeftHand  -0.434654 -1.53159 7.45798
RightShoulder  -4.96962e-017 0 -2.36833e-017
RightArm  -0.124523 43.8822 82.706
RightForeArm  46.2089 65.9203 20.6646
RightHand  0.0829161 -5.98922 -18.4902
LeftUpLeg  -6.11283 -7.684 2.5456
LeftLeg  3.03947 9.16074 -0.102691
LeftFoot  10.3297 -0.144814 1.76356
LeftToes  -25.2576 2.25955e-006 -3.67304e-008
95
root  -6.45454 34.8163 -33.1645 -174.218 -15.0926 177.257
RightUpLeg  -0.0153959 -25.3389 -9.60939
RightLeg  6.19379 -10.8769 -0.470219
RightFoot  6.37323 0.0938535 -1.09322
RightToes  -28.6648 -0.134688 -0.239855
Spine  -3.2706 3.19476 -0.748791
Spine1  -6.40787 5.99632 -0.872711
HEad  -55.4506 -9.72717 4.61193
LeftShoulder1  -1.94126e-019 -3.10601e-018 -2.51263e-017
LeftArm  2.95755 21.5853 -78.0703
LeftForeArm  31.2858 -27.2588 -4.69423
LeftHand  -0.433266 -1.53312 7.43312
RightShoulder  -4.96962e-017 0 -2.36833e-017
RightArm  4.11999 49.5749 90.0399
RightForeArm  29.3641 46.0561 9.62527
RightHand  0.218978 -8.84793 -8.51724
LeftUpLeg  -5.2245 -8.58608 2.1488
LeftLeg  2.93323 9.30698 -0.121477
LeftFoot  10.3051 -0.145382 1.7841
LeftToes  -24.8275 2.25955e-006 -3.67304e-008
96
root  -6.48755 34.8127 -33.2043 -174.497 -15.8659 177.14
RightUpLeg  0.550963 -25.1995 -9.89834
RightLeg  6.34482 -11.6853 -0.535225
RightFoot  6.16907 0.0936303 -1.13981
RightToes  -28.428 -0.134637 -0.239864
Spine  -3.37826 3.85567 -1.05442
Spine1  -6.6426 7.30525 -1.54888
HEad  -53.264 -11.6194 6.42194
LeftShoulder1  -1.94126e-019 -3.10601e-018 -2.51263e-017
LeftArm  3.18831 21.1897 -77.1993
LeftForeArm  31.9158 -26.7525 -4.72841
LeftHand  -0.429286 -1.39438 7.50593
RightShoulder  -4.96962e-017 0 -2.36833e-017
RightArm  6.55149 50.6908 91.1344
RightForeArm  24.942 39.3042 7.6737
RightHand  0.137478 -9.37697 -5.24033
LeftUpLeg  -5.09285 -9.64809 1.98878
LeftLeg  3.22748 9.56903 -0.0759769
LeftFoot  10.1651 -0.146241 1.80857
LeftToes  -24.667 2.25955e-006 -3.67304e-008
97
root  -6.52336 34.8134 -33.2311 -174.702 -16.894 176.951
RightUpLeg  1.08939 -25.5347 -10.2872
RightLeg  6.58157 -12.2638 -0.611629
RightFoot  5.94738 0.091328 -1.15725
RightToes  -28.2835 -0.134539 -0.23986
Spine  -3.19074 4.34142 -1.47685
Spine1  -6.28504 8.245 -2.41702
HEad  -52.8035 -13.1954 8.72751
LeftShoulder1  -1.94126e-019 -3.10601e-018 -2.51263e-017
LeftArm  1.7617 20.4395 -76.2254
LeftForeArm  32.6775 -26.524 -4.76629
LeftHand  -0.437361 -1.3541 7.68678
RightShoulder  -4.96962e-017 0 -2.36833e-017
RightArm  7.77032 48.3378 88.7407
RightForeArm  30.0503 47.6418 10.1846
RightHand  0.210328 -8.99446 -7.94179
LeftUpLeg  -5.12106 -10.898 1.77747
LeftLeg  3.63425 9.72885 -0.00854298
LeftFoot  10.0704 -0.146134 1.81745
LeftToes  -24.4555 2.25955e-006 -3.67304e-008
98
root  -6.53958 34.8019 -33.2153 -174.67 -18.0782 176.816
RightUpLeg  1.19232 -26.0118 -10.4758
RightLeg  7.09775 -12.873 -0.756714
RightFoot  5.63924 0.0852079 -1.14284
RightToes  -28.2359 -0.134398 -0.239796
Spine  -3.03307 4.37552 -1.53679
Spine1  -5.99657 8.35195 -2.53078
HEad  -53.2425 -12.7504 8.78849
LeftShoulder1  -1.94126e-019 -3.10601e-018 -2.51263e-017
LeftArm  -0.631578 20.9253 -75.854
LeftForeArm  31.6193 -25.8316 -4.59449
LeftHand  -0.45278 -0.784909 8.6374
RightShoulder  -4.96962e-017 0 -2.36833e-017
RightArm  7.46069 45.5537 88.8449
RightForeArm  29.4571 59.4499 16.6136
RightHand  0.157338 -8.20366 -7.86802
LeftUpLeg  -5.71559 -11.8804 1.70005
LeftLeg  4.45159 9.49385 0.126356
LeftFoot  9.87391 -0.14091 1.74624
LeftToes  -24.4397 2.25955e-006 -3.67304e-008
99
root  -6.54062 34.7765 -33.1819 -174.604 -18.9358 176.681
RightUpLeg  1.03945 -26.2363 -10.5994
RightLeg  7.80478 -13.4397 -0.954312
RightFoot  5.20323 0.0765011 -1.07878
RightToes  -28.1306 -0.134218 -0.239632
Spine  -2.77716 4.34191 -1.46279
Spine1  -5.52142 8.37185 -2.3602
HEad  -55.4228 -11.0377 8.06591
LeftShoulder1  -1.94126e-019 -3.10601e-018 -2.51263e-017
LeftArm  -2.07354 21.882 -75.5678
LeftForeArm  30.2597 -24.9771 -4.35469
LeftHand  -0.451647 -0.56083 8.92135
RightShoulder  -4.96962e-017 0 -2.36833e-017
RightArm  8.76654 43.1316 90.4169
RightForeArm  41.6962 71.1303 29.6647
RightHand  -0.00555495 -5.6017 -8.91369
LeftUpLeg  -6.22897 -12.559 1.63448
LeftLeg  5.06887 9.28661 0.22317
LeftFoot  9.71061 -0.136954 1.69424
LeftToes  -24.5357 2.25955e-006 -3.67304e-008
100
root  -6.53137 34.7619 -33.1445 -174.49 -19.5818 176.588
RightUpLeg  0.818453 -26.7278 -10.6751
RightLeg  8.37623 -13.5507 -1.09667
RightFoot  4.84186 0.0682234 -0.99048
RightToes  -27.942 -0.134001 -0.23938
Spine  -2.55444 4.30669 -1.41607
Spine1  -5.10027 8.36304 -2.24677
HEad  -58.7187 -8.91008 7.86451
LeftShoulder1  -1.94126e-019 -3.10601e-018 -2.51263e-017
LeftArm  -2.102 22.8281 -75.1217
LeftForeArm  29.6841 -23.6569 -4.09122
LeftHand  -0.454014 -0.493145 9.06502
RightShoulder  -4.96962e-017 0 -2.36833e-017
RightArm  13.0749 42.3074 92.6542
RightForeArm  58.8761 76.1686 42.0518
RightHand  -0.458617 -2.30151 -17.0049
LeftUpLeg  -6.64605 -13.0813 1.61485
LeftLeg  5.41234 9.16458 0.274949
LeftFoot  9.66009 -0.135033 1.67338
LeftToes  -24.5602 2.25955e-006 -3.67304e-008
101
root  -6.50337 34.7695 -33.0976 -174.084 -19.8238 176.653
RightUpLeg  0.268089 -27.0856 -10.3728
RightLeg  8.5003 -13.5171 -1.1232
RightFoot  4.85438 0.0666292 -0.991675
RightToes  -27.9336 -0.133752 -0.239053
Spine  -2.67407 4.2643 -1.40644
Spine1  -5.34421 8.2738 -2.24186
HEad  -61.009 -6.94305 8.41461
LeftShoulder1  -1.94126e-019 -3.10601e-018 -2.51263e-017
LeftArm  -1.65723 23.7851 -74.6263
LeftForeArm  30.4692 -21.1429 -3.72701
LeftHand  -0.465725 -0.68385 9.02048
RightShoulder  -4.96962e-017 0 -2.36833e-017
RightArm  20.5522 43.9228 96.211
RightForeArm  55.4369 71.6075 28.0102
RightHand  -0.247551 -4.4579 -30.2655
LeftUpLeg  -7.18366 -13.3934 1.82764
LeftLeg  5.35381 9.26803 0.268608
LeftFoot  9.83504 -0.137372 1.71828
LeftToes  -24.7137 2.25955e-006 -3.67304e-008
